<svg width="93" height="31" viewBox="0 0 93 31" fill="none" xmlns="http://www.w3.org/2000/svg">
<path d="M18.752 8.696C18.752 10.056 18.4 11.304 17.696 12.44C16.992 13.576 15.968 14.504 14.624 15.224C13.28 15.944 11.68 16.368 9.824 16.496L8.792 22.28C8.392 24.504 7.304 25.616 5.528 25.616C4.552 25.616 3.648 25.328 2.816 24.752C2 24.176 1.344 23.296 0.848 22.112C0.352 20.928 0.104 19.472 0.104 17.744C0.104 14.496 0.624 11.744 1.664 9.488C2.72 7.216 4.128 5.52 5.888 4.4C7.664 3.264 9.616 2.696 11.744 2.696C13.248 2.696 14.52 2.96 15.56 3.488C16.616 4.016 17.408 4.736 17.936 5.648C18.48 6.544 18.752 7.56 18.752 8.696ZM10.256 14.024C13.536 13.608 15.176 11.904 15.176 8.912C15.176 7.856 14.824 7 14.12 6.344C13.432 5.672 12.36 5.336 10.904 5.336C9.256 5.336 7.816 5.856 6.584 6.896C5.368 7.936 4.424 9.384 3.752 11.24C3.096 13.08 2.768 15.184 2.768 17.552C2.768 18.544 2.864 19.424 3.056 20.192C3.264 20.96 3.52 21.56 3.824 21.992C4.144 22.408 4.448 22.616 4.736 22.616C5.136 22.616 5.44 22.064 5.648 20.96L6.44 16.424C5.816 16.328 5.544 16.288 5.624 16.304C5.144 16.224 4.832 16.08 4.688 15.872C4.544 15.648 4.472 15.368 4.472 15.032C4.472 14.68 4.568 14.4 4.76 14.192C4.968 13.984 5.248 13.88 5.6 13.88C5.76 13.88 5.88 13.888 5.96 13.904C6.344 13.968 6.64 14.008 6.848 14.024C7.056 12.776 7.352 11.104 7.736 9.008C7.832 8.464 8.048 8.08 8.384 7.856C8.736 7.616 9.144 7.496 9.608 7.496C10.136 7.496 10.512 7.6 10.736 7.808C10.976 8 11.096 8.312 11.096 8.744C11.096 9 11.08 9.208 11.048 9.368L10.256 14.024ZM30.5092 15.632C30.7172 15.632 30.8772 15.736 30.9892 15.944C31.1012 16.152 31.1572 16.416 31.1572 16.736C31.1572 17.504 30.9252 17.96 30.4612 18.104C29.5012 18.44 28.4452 18.632 27.2932 18.68C26.9892 20.024 26.3892 21.104 25.4932 21.92C24.5972 22.72 23.5812 23.12 22.4452 23.12C21.4852 23.12 20.6612 22.888 19.9732 22.424C19.3012 21.96 18.7892 21.344 18.4372 20.576C18.0852 19.808 17.9092 18.976 17.9092 18.08C17.9092 16.864 18.1412 15.784 18.6052 14.84C19.0692 13.88 19.7092 13.136 20.5252 12.608C21.3412 12.064 22.2452 11.792 23.2372 11.792C24.4532 11.792 25.4292 12.216 26.1652 13.064C26.9172 13.896 27.3572 14.928 27.4852 16.16C28.2372 16.112 29.1332 15.952 30.1732 15.68C30.3012 15.648 30.4132 15.632 30.5092 15.632ZM22.6372 20.576C23.1492 20.576 23.5892 20.368 23.9572 19.952C24.3412 19.536 24.5972 18.936 24.7252 18.152C24.2292 17.816 23.8452 17.376 23.5732 16.832C23.3172 16.288 23.1892 15.712 23.1892 15.104C23.1892 14.848 23.2132 14.592 23.2612 14.336H23.1412C22.5012 14.336 21.9652 14.648 21.5332 15.272C21.1172 15.88 20.9092 16.744 20.9092 17.864C20.9092 18.744 21.0772 19.416 21.4132 19.88C21.7652 20.344 22.1732 20.576 22.6372 20.576ZM38.7933 15.104C39.1453 15.104 39.4413 15.232 39.6813 15.488C39.9373 15.728 40.0653 16.032 40.0653 16.4C40.0653 16.608 40.0173 16.832 39.9213 17.072C39.6653 17.664 39.3053 18.16 38.8413 18.56C38.3773 18.96 37.8653 19.16 37.3053 19.16C36.8573 19.16 36.4733 19 36.1533 18.68C35.8493 18.36 35.6973 17.928 35.6973 17.384C35.6973 17.08 35.7133 16.752 35.7453 16.4C35.7773 16.144 35.7933 15.968 35.7933 15.872C35.7933 15.744 35.7613 15.648 35.6973 15.584C35.6493 15.52 35.5853 15.488 35.5053 15.488C35.2813 15.488 34.9773 15.76 34.5933 16.304C34.2093 16.832 33.8253 17.536 33.4413 18.416C33.0573 19.296 32.7453 20.224 32.5053 21.2C32.3293 21.968 32.1293 22.48 31.9053 22.736C31.6813 22.992 31.3133 23.12 30.8013 23.12C30.1933 23.12 29.7613 22.8 29.5053 22.16C29.2653 21.52 29.1453 20.496 29.1453 19.088C29.1453 17.008 29.4413 15.032 30.0333 13.16C30.1773 12.696 30.4093 12.36 30.7293 12.152C31.0653 11.928 31.5293 11.816 32.1213 11.816C32.4413 11.816 32.6653 11.856 32.7933 11.936C32.9213 12.016 32.9853 12.168 32.9853 12.392C32.9853 12.648 32.8653 13.224 32.6253 14.12C32.4653 14.76 32.3373 15.32 32.2413 15.8C32.1453 16.28 32.0653 16.872 32.0013 17.576C32.5293 16.2 33.1213 15.08 33.7773 14.216C34.4333 13.352 35.0733 12.736 35.6973 12.368C36.3213 12 36.8893 11.816 37.4013 11.816C37.8653 11.816 38.2173 11.952 38.4573 12.224C38.7133 12.48 38.8413 12.864 38.8413 13.376C38.8413 13.68 38.7533 14.256 38.5773 15.104H38.7933ZM51.6841 17.648C51.8921 17.648 52.0521 17.744 52.1641 17.936C52.2921 18.128 52.3561 18.392 52.3561 18.728C52.3561 19.368 52.2041 19.864 51.9001 20.216C51.2121 21.064 50.4601 21.76 49.6441 22.304C48.8281 22.848 47.8921 23.12 46.8361 23.12C43.5721 23.12 41.9401 20.824 41.9401 16.232C41.9401 15.528 41.9641 14.816 42.0121 14.096H41.0761C40.5961 14.096 40.2681 14.008 40.0921 13.832C39.9321 13.656 39.8521 13.376 39.8521 12.992C39.8521 12.096 40.2121 11.648 40.9321 11.648H42.3001C42.5721 9.888 42.9881 8.28 43.5481 6.824C44.1081 5.368 44.7801 4.208 45.5641 3.344C46.3641 2.48 47.2201 2.048 48.1321 2.048C48.8041 2.048 49.3321 2.344 49.7161 2.936C50.1001 3.528 50.2921 4.272 50.2921 5.168C50.2921 7.648 49.2521 9.808 47.1721 11.648H49.8601C50.1161 11.648 50.3001 11.704 50.4121 11.816C50.5241 11.928 50.5801 12.136 50.5801 12.44C50.5801 13.544 49.6761 14.096 47.8681 14.096H44.9401C44.9081 14.896 44.8921 15.52 44.8921 15.968C44.8921 17.632 45.0841 18.8 45.4681 19.472C45.8681 20.144 46.4921 20.48 47.3401 20.48C48.0281 20.48 48.6361 20.272 49.1641 19.856C49.6921 19.44 50.3161 18.816 51.0361 17.984C51.2281 17.76 51.4441 17.648 51.6841 17.648ZM47.4841 4.352C47.2441 4.352 46.9721 4.656 46.6681 5.264C46.3801 5.856 46.1001 6.688 45.8281 7.76C45.5721 8.816 45.3561 9.992 45.1801 11.288C46.1241 10.472 46.8281 9.56 47.2921 8.552C47.7721 7.528 48.0121 6.6 48.0121 5.768C48.0121 4.824 47.8361 4.352 47.4841 4.352ZM59.978 16.28C60.426 16.28 60.65 16.616 60.65 17.288C60.65 18.552 59.658 19.184 57.674 19.184C57.29 19.184 56.738 19.112 56.018 18.968C56.226 19.96 56.394 21.064 56.522 22.28C56.666 23.48 56.738 24.472 56.738 25.256C56.738 26.984 56.458 28.304 55.898 29.216C55.338 30.128 54.602 30.584 53.69 30.584C52.538 30.584 51.714 29.768 51.218 28.136C50.738 26.504 50.498 24.04 50.498 20.744C50.498 17.672 50.826 14.56 51.482 11.408C52.154 8.24 53.066 5.624 54.218 3.56C55.386 1.48 56.666 0.439999 58.058 0.439999C58.81 0.439999 59.394 0.775999 59.81 1.448C60.242 2.12 60.458 3.024 60.458 4.16C60.458 7.92 58.21 12.016 53.714 16.448C53.554 18.016 53.474 19.392 53.474 20.576C53.474 22.224 53.53 23.912 53.642 25.64C53.754 27.384 53.938 28.256 54.194 28.256C54.674 28.256 54.914 27.424 54.914 25.76C54.914 24.512 54.826 23.304 54.65 22.136C54.49 20.968 54.266 19.736 53.978 18.44C53.962 18.232 54.026 17.968 54.17 17.648C54.33 17.328 54.522 17.048 54.746 16.808C54.97 16.568 55.17 16.448 55.346 16.448C55.666 16.448 56.05 16.464 56.498 16.496C56.642 16.512 56.81 16.52 57.002 16.52C57.642 16.52 58.354 16.464 59.138 16.352C59.266 16.336 59.402 16.32 59.546 16.304C59.69 16.288 59.834 16.28 59.978 16.28ZM57.554 2.816C57.266 2.816 56.906 3.304 56.474 4.28C56.058 5.256 55.642 6.552 55.226 8.168C54.81 9.768 54.45 11.464 54.146 13.256C55.426 11.8 56.41 10.288 57.098 8.72C57.786 7.136 58.138 5.656 58.154 4.28C58.154 3.304 57.954 2.816 57.554 2.816ZM71.0795 15.632C71.2875 15.632 71.4475 15.736 71.5595 15.944C71.6715 16.152 71.7275 16.416 71.7275 16.736C71.7275 17.504 71.4955 17.96 71.0315 18.104C70.0715 18.44 69.0155 18.632 67.8635 18.68C67.5595 20.024 66.9595 21.104 66.0635 21.92C65.1675 22.72 64.1515 23.12 63.0155 23.12C62.0555 23.12 61.2315 22.888 60.5435 22.424C59.8715 21.96 59.3595 21.344 59.0075 20.576C58.6555 19.808 58.4795 18.976 58.4795 18.08C58.4795 16.864 58.7115 15.784 59.1755 14.84C59.6395 13.88 60.2795 13.136 61.0955 12.608C61.9115 12.064 62.8155 11.792 63.8075 11.792C65.0235 11.792 65.9995 12.216 66.7355 13.064C67.4875 13.896 67.9275 14.928 68.0555 16.16C68.8075 16.112 69.7035 15.952 70.7435 15.68C70.8715 15.648 70.9835 15.632 71.0795 15.632ZM63.2075 20.576C63.7195 20.576 64.1595 20.368 64.5275 19.952C64.9115 19.536 65.1675 18.936 65.2955 18.152C64.7995 17.816 64.4155 17.376 64.1435 16.832C63.8875 16.288 63.7595 15.712 63.7595 15.104C63.7595 14.848 63.7835 14.592 63.8315 14.336H63.7115C63.0715 14.336 62.5355 14.648 62.1035 15.272C61.6875 15.88 61.4795 16.744 61.4795 17.864C61.4795 18.744 61.6475 19.416 61.9835 19.88C62.3355 20.344 62.7435 20.576 63.2075 20.576ZM78.7636 17.648C78.9716 17.648 79.1316 17.744 79.2436 17.936C79.3716 18.128 79.4356 18.392 79.4356 18.728C79.4356 19.368 79.2836 19.864 78.9796 20.216C78.2916 21.064 77.5396 21.76 76.7236 22.304C75.9236 22.848 75.0116 23.12 73.9876 23.12C72.5796 23.12 71.5316 22.48 70.8436 21.2C70.1716 19.92 69.8356 18.264 69.8356 16.232C69.8356 14.28 70.0836 12.056 70.5796 9.56C71.0916 7.064 71.8356 4.92 72.8116 3.128C73.8036 1.336 74.9796 0.439999 76.3396 0.439999C77.1076 0.439999 77.7076 0.799999 78.1396 1.52C78.5876 2.224 78.8116 3.24 78.8116 4.568C78.8116 6.472 78.2836 8.68 77.2276 11.192C76.1716 13.704 74.7396 16.192 72.9316 18.656C73.0436 19.312 73.2276 19.784 73.4836 20.072C73.7396 20.344 74.0756 20.48 74.4916 20.48C75.1476 20.48 75.7236 20.296 76.2196 19.928C76.7156 19.544 77.3476 18.896 78.1156 17.984C78.3076 17.76 78.5236 17.648 78.7636 17.648ZM75.8116 2.816C75.4436 2.816 75.0276 3.48 74.5636 4.808C74.0996 6.136 73.6916 7.784 73.3396 9.752C72.9876 11.72 72.7956 13.608 72.7636 15.416C73.8996 13.544 74.8036 11.672 75.4756 9.8C76.1476 7.912 76.4836 6.192 76.4836 4.64C76.4836 3.424 76.2596 2.816 75.8116 2.816ZM80.6398 10.232C79.9678 10.232 79.4638 10.08 79.1278 9.776C78.7918 9.456 78.6238 9.016 78.6238 8.456C78.6238 7.896 78.8398 7.432 79.2718 7.064C79.7198 6.68 80.2718 6.488 80.9278 6.488C81.5198 6.488 81.9998 6.632 82.3678 6.92C82.7358 7.208 82.9198 7.616 82.9198 8.144C82.9198 8.784 82.7118 9.296 82.2958 9.68C81.8798 10.048 81.3278 10.232 80.6398 10.232ZM80.4478 23.12C79.4078 23.12 78.6478 22.752 78.1678 22.016C77.7038 21.28 77.4718 20.304 77.4718 19.088C77.4718 18.368 77.5598 17.448 77.7358 16.328C77.9278 15.192 78.1678 14.136 78.4558 13.16C78.5998 12.648 78.7918 12.296 79.0318 12.104C79.2718 11.912 79.6558 11.816 80.1838 11.816C80.9998 11.816 81.4078 12.088 81.4078 12.632C81.4078 13.032 81.2558 13.96 80.9518 15.416C80.5678 17.176 80.3758 18.368 80.3758 18.992C80.3758 19.472 80.4398 19.84 80.5678 20.096C80.6958 20.352 80.9118 20.48 81.2158 20.48C81.5038 20.48 81.8638 20.28 82.2958 19.88C82.7278 19.48 83.3038 18.848 84.0238 17.984C84.2158 17.76 84.4318 17.648 84.6718 17.648C84.8798 17.648 85.0398 17.744 85.1518 17.936C85.2798 18.128 85.3438 18.392 85.3438 18.728C85.3438 19.368 85.1918 19.864 84.8878 20.216C83.3038 22.152 81.8238 23.12 80.4478 23.12ZM87.458 23.12C86.514 23.12 85.706 22.888 85.034 22.424C84.378 21.944 83.882 21.32 83.546 20.552C83.21 19.784 83.042 18.96 83.042 18.08C83.042 16.864 83.266 15.784 83.714 14.84C84.178 13.88 84.802 13.136 85.586 12.608C86.37 12.064 87.25 11.792 88.226 11.792C89.17 11.792 89.978 12.032 90.65 12.512C91.322 12.976 91.826 13.592 92.162 14.36C92.498 15.128 92.666 15.952 92.666 16.832C92.666 18.048 92.434 19.136 91.97 20.096C91.506 21.04 90.874 21.784 90.074 22.328C89.29 22.856 88.418 23.12 87.458 23.12ZM87.722 20.528C88.266 20.528 88.722 20.232 89.09 19.64C89.474 19.048 89.666 18.184 89.666 17.048C89.666 16.168 89.506 15.504 89.186 15.056C88.866 14.608 88.482 14.384 88.034 14.384C87.458 14.384 86.978 14.68 86.594 15.272C86.226 15.848 86.042 16.712 86.042 17.864C86.042 18.776 86.202 19.448 86.522 19.88C86.842 20.312 87.242 20.528 87.722 20.528Z" fill="url(#paint0_linear_8_913)"/>
<defs>
<linearGradient id="paint0_linear_8_913" x1="46.5" y1="-8" x2="46.5" y2="34" gradientUnits="userSpaceOnUse">
<stop stop-color="#FF9C1A"/>
<stop offset="1" stop-color="#ED250A"/>
</linearGradient>
</defs>
</svg>
